<?xml version="1.0" ?><svg id="Icons" viewBox="0 0 128 128" xmlns="http://www.w3.org/2000/svg" xmlns:xlink="http://www.w3.org/1999/xlink"><defs><style>.cls-1{fill:#A2A3A1;}.cls-2{fill:url(#New_Gradient_Swatch_1);}</style><linearGradient gradientUnits="userSpaceOnUse" id="New_Gradient_Swatch_1" x1="4" x2="78" y1="64" y2="64"><stop offset="0" stop-color="#ffffff"/><stop offset="1" stop-color="#ffffff"/></linearGradient></defs><path class="cls-1" d="M115.43,79.94a4.56,4.56,0,0,1-3.23-1.34L89.46,55.86a4.57,4.57,0,1,1,6.47-6.46l22.73,22.74a4.57,4.57,0,0,1-3.23,7.8Z"/><path class="cls-1" d="M92.69,79.94a4.57,4.57,0,0,1-3.23-7.8L112.2,49.4a4.57,4.57,0,1,1,6.46,6.46L95.93,78.6A4.6,4.6,0,0,1,92.69,79.94Z"/><path class="cls-2" d="M71.46,20.84a12.77,12.77,0,0,0-13-.29l-.41.26L30.32,41H8.51A4.54,4.54,0,0,0,4,45.57V82.43A4.54,4.54,0,0,0,8.51,87H30.32L58,107.18l.42.28a12.82,12.82,0,0,0,13-.3,13.9,13.9,0,0,0,6.54-12V32.79A13.9,13.9,0,0,0,71.46,20.84Z"/></svg>