<?xml version="1.0" encoding="utf-8"?>
<!-- Generator: Adobe Illustrator 22.0.0, SVG Export Plug-In . SVG Version: 6.00 Build 0)  -->
<svg version="1.1" id="Слой_1" xmlns="http://www.w3.org/2000/svg" xmlns:xlink="http://www.w3.org/1999/xlink" x="0px" y="0px"
	 viewBox="0 0 717.5 197.3" style="enable-background:new 0 0 717.5 197.3;" xml:space="preserve">
<path class="st0" d="M236.8,27.6c9.5-3.6,19.1-5.3,29.9-5.3c27.1,0,51.3,12.5,67.2,32c2.1,2.6,3.5,5.9,3.5,9.4c0,4.9-2.1,9-5.8,11.7
	l-0.2,0.3c-2.5,1.8-5.6,2.9-8.9,2.9c-4.7,0-8.9-2.2-11.6-5.5c-3.2-4-6.9-7.4-11-10.4c-9.3-6.6-20.8-10.6-33.1-10.6
	c-7.1,0-13.4,1.2-19.6,3.6C235.2,60.1,225,68.4,218.4,79c-5.3,8.7-8.5,18.9-8.5,29.7c0,8,1.8,15.6,4.7,22.5
	c4,9.2,10.2,17.2,18.1,23.1c9.4,7,21.2,11.2,33.9,11.2c17.7,0,33.8-8.4,44.2-21.2c2.7-3.5,6.9-5.7,11.6-5.7
	c8.2,0,14.9,6.7,14.9,14.9c0,3.5-1.2,6.8-3.3,9.4c-15.9,19.7-40.1,32.4-67.4,32.4c-47.7,0-86.5-38.7-86.5-86.6
	c0-16.8,4.9-32.6,13.2-46C203.4,46.9,219,34.4,236.8,27.6"/>
<path class="st0" d="M415.8,27.6c9.5-3.6,19.1-5.3,29.9-5.3c27.1,0,51.3,12.5,67.2,32c2.1,2.6,3.4,5.9,3.4,9.4c0,4.9-2.2,9-5.8,11.7
	l-0.2,0.3c-2.5,1.8-5.6,2.9-8.9,2.9c-4.7,0-8.8-2.2-11.6-5.6c-3.2-4-6.9-7.4-11.1-10.4c-9.3-6.7-20.7-10.6-33.1-10.6
	c-7.1,0-13.4,1.2-19.6,3.6C414.3,60.1,404,68.4,397.4,79c-5.3,8.6-8.5,18.8-8.5,29.8c0,7.9,1.8,15.5,4.8,22.4
	c3.9,9.2,10.2,17.2,18.1,23.1c9.4,7.1,21.2,11.3,33.8,11.3c17.8,0,33.8-8.4,44.2-21.2c2.7-3.4,6.9-5.7,11.6-5.7
	c8.3,0,14.9,6.7,14.9,14.9c0,3.5-1.3,6.8-3.3,9.3c-15.9,19.8-40.1,32.4-67.4,32.4c-47.7,0-86.5-38.7-86.5-86.5
	c0-17,4.9-32.7,13.3-46C382.4,46.9,398,34.3,415.8,27.6"/>
<path class="st0" d="M557.7,162.9c15.9,19.7,40.1,32.3,67.4,32.3c47.8,0,86.5-38.7,86.5-86.6c0-16.8-4.8-32.6-13.2-45.9
	c-2.7-4.2-7.4-7.1-12.7-7.1c-8.2,0-14.9,6.7-14.9,14.9c0,2.9,1.1,6.1,2.5,8.4c5.4,8.7,8.5,18.9,8.5,29.7c0,8-1.7,15.6-4.7,22.5
	c-4,9.2-10.2,17.2-18.1,23.1c-9.5,7-21.2,11.2-33.9,11.2c-17.8,0-33.8-8.4-44.2-21.2c-8-9.8-12.6-21.9-12.6-35.6
	c0-18.9,9.3-35.8,23.7-46.1c9.3-6.6,20.7-10.6,33.1-10.6c7,0,13.4,1.2,19.6,3.6c1.6,0.6,3.3,0.9,5.1,0.9c8.2,0,14.9-6.7,14.9-14.9
	c0-6.4-4.1-11.9-9.8-14c-9.5-3.6-19.1-5.3-29.9-5.3c-27.1,0-51.4,12.5-67.3,32c-12.1,14.9-19.3,33.9-19.3,54.5
	C538.5,129.3,545.7,148.1,557.7,162.9"/>
<path class="st0" d="M58,27.6c-5.7,2.1-9.7,7.6-9.7,14c0,8.2,6.7,14.9,14.9,14.9c1.8,0,3.5-0.3,5.1-0.9c6.2-2.3,12.6-3.6,19.7-3.6
	c12.3,0,23.9,4.2,33.2,10.9l-85.2,68.3c-2.9-6.9-4.6-14.4-4.6-22.3c0-11,3.1-21.2,8.4-29.8c1.5-2.3,2.6-5.5,2.6-8.4
	c0-8.2-6.6-14.9-14.9-14.9c-5.3,0-10,2.9-12.6,7C6.3,76.1,1.4,91.9,1.4,108.9c0,47.7,38.7,86.4,86.5,86.4
	c27.3,0,51.6-12.6,67.4-32.4c2.1-2.5,3.3-5.8,3.3-9.3c0-8.2-6.7-14.9-14.9-14.9c-4.7,0-8.9,2.2-11.6,5.6
	c-10.4,12.8-26.4,21.2-44.1,21.2c-12.7,0-24.4-4.3-33.9-11.3l98.5-78.8c3.7-2.8,5.9-6.8,5.9-11.7c0-3.5-1.4-6.9-3.5-9.4
	c-15.8-19.5-40.1-32-67.2-32C77.2,22.3,67.5,24.1,58,27.6"/>
<path class="st0" d="M682.2,20.4c0-8.2,6.7-14.9,15-14.9c8.2,0,14.9,6.7,14.9,14.9c0,8.2-6.7,14.9-14.9,14.9
	C688.9,35.3,682.2,28.6,682.2,20.4 M678.6,20.4c0,10.2,8.3,18.5,18.5,18.5c10.2,0,18.5-8.3,18.5-18.5c0-10.2-8.3-18.5-18.5-18.5
	C686.9,1.9,678.6,10.2,678.6,20.4z"/>
<path class="st0" d="M691.2,11.2h3.9c4,0,8.6-0.1,8.6,5c0,2.2-1.5,4-3.8,4.3v0.1c1.1,0.1,1.6,1.1,2,1.9l2.9,7.1h-4.1l-2.2-5.7
	c-0.5-1.4-1-1.9-2.5-1.9h-1.2v7.6h-3.7V11.2z M694.9,19.1h1.2c1.8,0,3.9-0.3,3.9-2.6c0-2.2-2-2.4-3.9-2.4h-1.2V19.1z"/>
</svg>
